<svg width="117" height="68" viewBox="0 0 117 68" fill="none" xmlns="http://www.w3.org/2000/svg">
<path d="M58.5 54C65.1145 54 70.7369 52.0312 75.3671 48.0937C79.9974 44.1562 82.3125 39.375 82.3125 33.75C82.3125 28.125 79.9974 23.3437 75.3671 19.4062C70.7369 15.4687 65.1145 13.5 58.5 13.5C51.8854 13.5 46.263 15.4687 41.6328 19.4062C37.0026 23.3437 34.6875 28.125 34.6875 33.75C34.6875 39.375 37.0026 44.1562 41.6328 48.0937C46.263 52.0312 51.8854 54 58.5 54ZM58.5 45.9C54.5312 45.9 51.1578 44.7187 48.3796 42.3562C45.6015 39.9937 44.2125 37.125 44.2125 33.75C44.2125 30.375 45.6015 27.5062 48.3796 25.1437C51.1578 22.7812 54.5312 21.6 58.5 21.6C62.4687 21.6 65.8421 22.7812 68.6203 25.1437C71.3984 27.5062 72.7875 30.375 72.7875 33.75C72.7875 37.125 71.3984 39.9937 68.6203 42.3562C65.8421 44.7187 62.4687 45.9 58.5 45.9ZM58.5 67.5C45.6236 67.5 33.8937 64.4437 23.3104 58.3312C12.727 52.2187 5.05413 44.025 0.291626 33.75C5.05413 23.475 12.727 15.2812 23.3104 9.16875C33.8937 3.05625 45.6236 0 58.5 0C71.3763 0 83.1062 3.05625 93.6895 9.16875C104.273 15.2812 111.946 23.475 116.708 33.75C111.946 44.025 104.273 52.2187 93.6895 58.3312C83.1062 64.4437 71.3763 67.5 58.5 67.5ZM58.5 58.5C68.4659 58.5 77.6161 56.2687 85.9505 51.8062C94.2849 47.3437 100.657 41.325 105.067 33.75C100.657 26.175 94.2849 20.1562 85.9505 15.6937C77.6161 11.2312 68.4659 9 58.5 9C48.534 9 39.3838 11.2312 31.0494 15.6937C22.7151 20.1562 16.343 26.175 11.9333 33.75C16.343 41.325 22.7151 47.3437 31.0494 51.8062C39.3838 56.2687 48.534 58.5 58.5 58.5Z" fill="#06213A"/>
</svg>
