<svg width="110" height="110" viewBox="0 0 110 110" fill="none" xmlns="http://www.w3.org/2000/svg">
<g id="gridicons:play">
<g id="Vector">
<path d="M55 9.16675C45.935 9.16675 37.0736 11.8548 29.5364 16.8911C21.9991 21.9273 16.1245 29.0855 12.6555 37.4604C9.18652 45.8354 8.27886 55.0509 10.0474 63.9417C11.8158 72.8325 16.181 80.9992 22.5909 87.4091C29.0009 93.819 37.1676 98.1843 46.0584 99.9527C54.9492 101.721 64.1647 100.814 72.5397 97.3446C80.9146 93.8755 88.0728 88.001 93.109 80.4637C98.1453 72.9265 100.833 64.0651 100.833 55.0001C100.833 48.9812 99.6478 43.0212 97.3445 37.4604C95.0411 31.8997 91.6651 26.847 87.4091 22.591C83.153 18.335 78.1004 14.9589 72.5397 12.6556C66.9789 10.3523 61.0189 9.16675 55 9.16675ZM45.8333 75.6251V34.3751L73.3333 55.0001L45.8333 75.6251Z" fill="#F4F1F1" fill-opacity="0.9"/>
<path d="M45.3333 75.6251V76.6251L46.1333 76.0251L73.6333 55.4001L74.1667 55.0001L73.6333 54.6001L46.1333 33.9751L45.3333 33.3751V34.3751V75.6251ZM29.8142 17.3068C37.2692 12.3255 46.0339 9.66675 55 9.66675C60.9533 9.66675 66.8482 10.8393 72.3483 13.1175C77.8484 15.3958 82.8459 18.735 87.0555 22.9446C91.2651 27.1542 94.6043 32.1517 96.8825 37.6518C99.1608 43.1519 100.333 49.0468 100.333 55.0001C100.333 63.9662 97.6746 72.7309 92.6933 80.1859C87.712 87.641 80.6319 93.4515 72.3483 96.8826C64.0647 100.314 54.9497 101.212 46.1559 99.4623C37.3621 97.7132 29.2845 93.3956 22.9445 87.0556C16.6045 80.7156 12.2869 72.638 10.5377 63.8442C8.78855 55.0504 9.6863 45.9353 13.1175 37.6518C16.5486 29.3682 22.3591 22.2881 29.8142 17.3068Z" stroke="white" stroke-opacity="0.4"/>
</g>
</g>
</svg>
