<svg width="21" height="19" viewBox="0 0 21 19" fill="none" xmlns="http://www.w3.org/2000/svg">
<path d="M10.35 15.55L10.25 15.65L10.14 15.55C5.39 11.24 2.25 8.39 2.25 5.5C2.25 3.5 3.75 2 5.75 2C7.29 2 8.79 3 9.32 4.36H11.18C11.71 3 13.21 2 14.75 2C16.75 2 18.25 3.5 18.25 5.5C18.25 8.39 15.11 11.24 10.35 15.55ZM14.75 0C13.01 0 11.34 0.81 10.25 2.08C9.16 0.81 7.49 0 5.75 0C2.67 0 0.25 2.41 0.25 5.5C0.25 9.27 3.65 12.36 8.8 17.03L10.25 18.35L11.7 17.03C16.85 12.36 20.25 9.27 20.25 5.5C20.25 2.41 17.83 0 14.75 0Z" fill="#666666"/>
</svg>
