<svg width="21" height="22" viewBox="0 0 21 22" fill="none" xmlns="http://www.w3.org/2000/svg">
<path d="M20.5453 19.2039L16.0931 14.7499C17.428 13.0103 18.0513 10.8281 17.8364 8.64594C17.6215 6.46377 16.5847 4.44503 14.9361 2.99924C13.2876 1.55344 11.1508 0.788858 8.95923 0.860583C6.76768 0.932307 4.68546 1.83497 3.13497 3.38546C1.58448 4.93595 0.681819 7.01817 0.610095 9.20972C0.53837 11.4013 1.30295 13.538 2.74875 15.1866C4.19454 16.8352 6.21328 17.872 8.39545 18.0869C10.5776 18.3018 12.7598 17.6785 14.4994 16.3436L18.9553 20.8005C19.06 20.9051 19.1842 20.9882 19.3209 21.0448C19.4577 21.1014 19.6042 21.1306 19.7522 21.1306C19.9002 21.1306 20.0467 21.1014 20.1835 21.0448C20.3202 20.9882 20.4444 20.9051 20.5491 20.8005C20.6537 20.6958 20.7367 20.5716 20.7934 20.4349C20.85 20.2982 20.8791 20.1516 20.8791 20.0036C20.8791 19.8556 20.85 19.7091 20.7934 19.5724C20.7367 19.4356 20.6537 19.3114 20.5491 19.2067L20.5453 19.2039ZM2.87438 9.49987C2.87438 8.23902 3.24827 7.00647 3.94876 5.95811C4.64926 4.90975 5.6449 4.09265 6.80978 3.61014C7.97466 3.12763 9.25646 3.00138 10.4931 3.24737C11.7297 3.49335 12.8656 4.10051 13.7572 4.99207C14.6487 5.88363 15.2559 7.01954 15.5019 8.25617C15.7479 9.4928 15.6216 10.7746 15.1391 11.9395C14.6566 13.1044 13.8395 14.1 12.7911 14.8005C11.7428 15.501 10.5102 15.8749 9.24938 15.8749C7.55916 15.8731 5.93866 15.2009 4.7435 14.0058C3.54833 12.8106 2.87612 11.1901 2.87438 9.49987Z" fill="#666666"/>
</svg>
