<svg width="15" height="16" viewBox="0 0 15 16" fill="none" xmlns="http://www.w3.org/2000/svg">
<g opacity="0.6">
<mask id="mask0_1344_1777" style="mask-type:luminance" maskUnits="userSpaceOnUse" x="0" y="0" width="15" height="16">
<path d="M15 0H0V16H15V0Z" fill="white"/>
</mask>
<g mask="url(#mask0_1344_1777)">
<path d="M7.51162 13.9255L7.50764 12.0331V12.0275L0.982422 12.043C2.33521 14.5026 4.82725 16.0056 7.51692 16L7.51294 13.9269L7.51162 13.9255ZM14.0169 3.95661L7.4917 3.97204V3.96641L7.48772 2.07405L7.48375 0.000992172C10.1721 -0.00461049 12.6654 1.49836 14.0182 3.95801L14.0169 3.95661Z" fill="#ECECEC"/>
<path d="M1.01418 8.01493L2.88288 8.01073L2.88421 8.01633L7.49826 8.00513V7.99953L7.50754 12.5533C7.48103 13.6612 7.22772 16.1055 5.56989 15.7315C6.2025 15.9094 6.85901 16.0004 7.51552 15.999C7.6614 15.999 7.81391 15.9976 7.96114 15.9794H8.00227C11.5699 15.7287 14.4611 12.8838 14.989 9.20133C15.0699 8.62003 14.6826 8.07656 14.1309 7.99673C14.0845 7.9911 14.0367 7.9841 13.985 7.9841L12.1163 7.9883L12.115 7.9827L7.50091 7.9939V7.99953L7.49163 3.4458C7.51818 2.33782 7.77149 -0.106439 9.42932 0.267551C8.79667 0.0896616 8.14019 -0.00138507 7.48368 1.59261e-05C7.3378 1.59261e-05 7.18527 0.0014166 7.03806 0.0196259H6.99694C3.45186 0.268955 0.536728 3.12223 0.0102015 6.7977C-0.0707005 7.379 0.316568 7.92246 0.868291 8.00233C0.914712 8.00793 0.962458 8.01493 1.01418 8.01493Z" fill="#B0B0B0"/>
</g>
</g>
</svg>
