<svg xmlns="http://www.w3.org/2000/svg" width="194" height="66" viewBox="0 0 194 66" fill="none">
    <g clip-path="url(#clip0_392_4318)">
        <mask id="mask0_392_4318" style="mask-type:luminance" maskUnits="userSpaceOnUse" x="0" y="0" width="58" height="66">
            <path d="M57.2677 0.915039H0V65.5681H57.2677V0.915039Z" fill="white"/>
        </mask>
        <g mask="url(#mask0_392_4318)">
            <path d="M28.6795 57.1891L28.6643 49.5424V49.5197L3.75198 49.5821C8.91671 59.521 18.431 65.5942 28.6997 65.5716L28.6845 57.1949L28.6795 57.1891ZM53.5157 16.9066L28.6034 16.969V16.9462L28.5882 9.29954L28.5731 0.92267C38.8367 0.900031 48.356 6.97325 53.5207 16.9122L53.5157 16.9066Z" fill="#ECECEC"/>
            <path d="M3.87336 33.3038L11.0078 33.2869L11.0129 33.3095L28.6286 33.2642V33.2416L28.664 51.6424C28.5628 56.1195 27.5957 65.9962 21.2664 64.4849C23.6816 65.2038 26.1881 65.5716 28.6945 65.566C29.2514 65.566 29.8337 65.5603 30.3958 65.4868H30.5528C44.1734 64.4736 55.2118 52.9782 57.2271 38.0979C57.5359 35.7489 56.0574 33.5529 53.951 33.2303C53.7738 33.2075 53.5915 33.1793 53.3941 33.1793L46.2596 33.1962L46.2545 33.1736L28.6387 33.2188V33.2416L28.6033 14.8408C28.7046 10.3637 29.6717 0.486893 36.0011 1.99812C33.5857 1.2793 31.0794 0.911395 28.5729 0.917057C28.016 0.917057 27.4336 0.922716 26.8716 0.996297H26.7146C13.1801 2.00379 2.05052 13.5333 0.0403238 28.3852C-0.268548 30.7342 1.20999 32.9302 3.31638 33.2529C3.49361 33.2756 3.67589 33.3038 3.87336 33.3038Z" fill="#B0B0B0"/>
        </g>
        <path d="M86.4177 44.6644C83.6097 44.6644 80.8998 44.281 78.2876 43.5146C75.7083 42.7117 73.6023 41.6898 71.9697 40.4488L75.1533 32.4558C76.6878 33.5508 78.4509 34.4633 80.4426 35.1932C82.4669 35.8866 84.4749 36.2333 86.4666 36.2333C87.8053 36.2333 88.8828 36.1056 89.699 35.8501C90.5153 35.5582 91.1029 35.1932 91.4621 34.7552C91.854 34.2808 92.0498 33.7333 92.0498 33.1129C92.0498 32.237 91.6907 31.5434 90.9725 31.0325C90.254 30.5215 89.3236 30.1018 88.1808 29.7733C87.038 29.4449 85.7646 29.1164 84.3607 28.7879C82.9893 28.4595 81.6016 28.0398 80.1977 27.5287C78.8264 27.0178 77.5693 26.3608 76.4265 25.5579C75.2838 24.7185 74.3533 23.6417 73.635 22.3278C72.9166 20.9775 72.5575 19.2803 72.5575 17.2365C72.5575 14.9371 73.1125 12.8568 74.2227 10.9954C75.3654 9.13404 77.0633 7.63764 79.3162 6.50621C81.569 5.3748 84.3769 4.80908 87.74 4.80908C89.9929 4.80908 92.1968 5.10106 94.3517 5.68502C96.5393 6.23249 98.4821 7.05367 100.18 8.1486L97.1924 16.1963C95.5598 15.2108 93.9435 14.4809 92.3437 14.0064C90.7439 13.4955 89.1929 13.24 87.691 13.24C86.3524 13.24 85.2749 13.4042 84.4586 13.7327C83.6424 14.0247 83.0546 14.4261 82.6955 14.9371C82.3363 15.448 82.1568 16.0321 82.1568 16.689C82.1568 17.5284 82.4996 18.2036 83.1852 18.7146C83.9035 19.189 84.8341 19.5905 85.9769 19.9191C87.1523 20.2109 88.4256 20.5213 89.797 20.8497C91.2009 21.1782 92.5885 21.5979 93.9599 22.1089C95.3638 22.5833 96.6372 23.2403 97.78 24.0798C98.9228 24.8827 99.837 25.9594 100.523 27.3097C101.241 28.6237 101.6 30.2843 101.6 32.2916C101.6 34.518 101.029 36.5802 99.886 38.478C98.7758 40.3393 97.0944 41.8358 94.8415 42.9672C92.6212 44.0986 89.8133 44.6644 86.4177 44.6644Z" fill="white"/>
        <path d="M114.858 43.8977V14.1706H104.328V5.57544H135.036V14.1706H124.555V43.8977H114.858Z" fill="white"/>
        <path d="M148.268 43.8977L137.15 5.57544H147.141L156.495 38.7516H151.45L161.295 5.57544H170.208L179.514 38.7516H174.665L184.313 5.57544H193.57L182.453 43.8977H172.07L164.135 15.7035H166.927L158.65 43.8977H148.268Z" fill="white"/>
        <path d="M73.4631 63.3602C73.0279 63.3602 72.6116 63.2872 72.2143 63.1412C71.817 62.9891 71.5041 62.7945 71.2756 62.5573L71.5776 61.8456C71.7953 62.0584 72.0728 62.2348 72.4102 62.3748C72.7476 62.5147 73.0986 62.5846 73.4631 62.5846C73.7951 62.5846 74.0645 62.5421 74.2713 62.4569C74.478 62.3717 74.6304 62.2561 74.7283 62.1101C74.8263 61.958 74.8753 61.7878 74.8753 61.5992C74.8753 61.3802 74.81 61.2038 74.6794 61.07C74.5542 60.9361 74.3883 60.8297 74.1815 60.7506C73.9802 60.6655 73.757 60.5925 73.5121 60.5316C73.2673 60.4708 73.0197 60.4008 72.7693 60.3218C72.5244 60.2367 72.2986 60.1301 72.0918 60.0024C71.8905 59.8747 71.7272 59.7043 71.602 59.4915C71.477 59.2725 71.4143 58.9926 71.4143 58.652C71.4143 58.3236 71.4906 58.0224 71.6429 57.7487C71.8007 57.469 72.0402 57.2469 72.3612 57.0827C72.6877 56.9123 73.1013 56.8271 73.6019 56.8271C73.9339 56.8271 74.2631 56.8758 74.5896 56.9732C74.9161 57.0704 75.1991 57.2104 75.4385 57.3929L75.1691 58.1228C74.9242 57.9403 74.6658 57.8096 74.3937 57.7304C74.1216 57.6453 73.8577 57.6027 73.6019 57.6027C73.2808 57.6027 73.0169 57.6484 72.8101 57.7396C72.6034 57.8309 72.4509 57.9525 72.3531 58.1046C72.2605 58.2567 72.2143 58.4269 72.2143 58.6155C72.2143 58.8406 72.2768 59.0201 72.402 59.1538C72.5326 59.2877 72.6986 59.3941 72.8999 59.4732C73.1067 59.5523 73.3326 59.6253 73.5775 59.6922C73.8223 59.753 74.0672 59.823 74.312 59.9021C74.5624 59.9811 74.7882 60.0846 74.9896 60.2123C75.1963 60.3401 75.3624 60.5104 75.4875 60.7233C75.6126 60.9361 75.6752 61.21 75.6752 61.5444C75.6752 61.8669 75.5963 62.1679 75.4385 62.4478C75.2807 62.7215 75.0358 62.9435 74.7039 63.1139C74.3773 63.278 73.9638 63.3602 73.4631 63.3602Z" fill="#ECECEC"/>
        <path d="M79.5552 63.2872V57.6939H77.5961V56.9001H82.3223V57.6939H80.3632V63.2872H79.5552Z" fill="#ECECEC"/>
        <path d="M87.1073 63.3602C86.3564 63.3602 85.766 63.1199 85.3361 62.6393C84.9062 62.1589 84.6913 61.4563 84.6913 60.5316V56.9001H85.5075V60.4951C85.5075 61.2068 85.6463 61.7269 85.9238 62.0554C86.2067 62.3839 86.604 62.5481 87.1155 62.5481C87.6325 62.5481 88.0297 62.3839 88.3072 62.0554C88.5903 61.7269 88.7318 61.2068 88.7318 60.4951V56.9001H89.5235V60.5316C89.5235 61.4563 89.3086 62.1589 88.8786 62.6393C88.4542 63.1199 87.8638 63.3602 87.1073 63.3602Z" fill="#ECECEC"/>
        <path d="M92.8295 63.2872V56.9001H95.2375C95.847 56.9001 96.383 57.034 96.8455 57.3017C97.3136 57.5693 97.6754 57.9434 97.9312 58.4239C98.1923 58.9045 98.3229 59.4611 98.3229 60.0936C98.3229 60.7263 98.1923 61.2828 97.9312 61.7634C97.6754 62.244 97.3136 62.618 96.8455 62.8857C96.383 63.1533 95.847 63.2872 95.2375 63.2872H92.8295ZM93.6457 62.4933H95.1886C95.662 62.4933 96.0701 62.393 96.413 62.1923C96.7612 61.9916 97.0306 61.7117 97.221 61.3529C97.4115 60.9878 97.5067 60.5681 97.5067 60.0936C97.5067 59.6131 97.4115 59.1934 97.221 58.8345C97.0306 58.4757 96.7612 58.1958 96.413 57.9951C96.0701 57.7944 95.662 57.6939 95.1886 57.6939H93.6457V62.4933Z" fill="#ECECEC"/>
        <path d="M102.338 63.2872V60.8418L102.526 61.4075L100.069 56.9001H100.942L103.008 60.705H102.534L104.607 56.9001H105.416L102.967 61.4075L103.146 60.8418V63.2872H102.338Z" fill="#ECECEC"/>
        <path d="M112.835 63.2872V57.6939H110.876V56.9001H115.603V57.6939H113.644V63.2872H112.835Z" fill="#ECECEC"/>
        <path d="M118.124 63.2872V56.9001H120.353C120.854 56.9001 121.28 56.9884 121.634 57.1647C121.987 57.3411 122.26 57.5966 122.45 57.9312C122.641 58.2658 122.736 58.6642 122.736 59.1265C122.736 59.5888 122.641 59.9872 122.45 60.3218C122.26 60.6503 121.987 60.9027 121.634 61.0792C121.28 61.2555 120.854 61.3437 120.353 61.3437H118.573L118.94 60.924V63.2872H118.124ZM121.944 63.2872L120.491 60.9697H121.364L122.835 63.2872H121.944ZM118.94 61.0152L118.573 60.5681H120.328C120.85 60.5681 121.245 60.4434 121.511 60.1941C121.784 59.9386 121.92 59.5827 121.92 59.1265C121.92 58.6703 121.784 58.3174 121.511 58.0681C121.245 57.8186 120.85 57.6939 120.328 57.6939H118.573L118.94 57.2377V61.0152Z" fill="#ECECEC"/>
        <path d="M124.822 63.2872L127.41 56.9001H128.217L130.814 63.2872H129.956L127.646 57.411H127.973L125.663 63.2872H124.822ZM125.924 61.6904L126.145 60.9605H129.361L129.597 61.6904H125.924Z" fill="#ECECEC"/>
        <path d="M134.644 63.287L132.13 56.8999H133.012L135.322 62.7942H134.816L137.142 56.8999H137.958L135.453 63.287H134.644Z" fill="#ECECEC"/>
        <path d="M141.062 59.6557H144.001V60.4313H141.062V59.6557ZM141.136 62.4933H144.466V63.2872H140.32V56.9001H144.352V57.6939H141.136V62.4933Z" fill="#ECECEC"/>
        <path d="M147.421 63.2872V56.9001H148.236V62.4933H151.33V63.2872H147.421Z" fill="#ECECEC"/>
        <path d="M159.038 63.2872L157.128 56.9001H157.969L159.723 62.7945H159.299L161.12 56.9001H161.871L163.65 62.7945H163.242L165.022 56.9001H165.796L163.887 63.2872H163.03L161.365 57.8217H161.585L159.911 63.2872H159.038Z" fill="#ECECEC"/>
        <path d="M170.951 63.3602C170.516 63.3602 170.11 63.278 169.736 63.1139C169.366 62.9497 169.044 62.7215 168.772 62.4295C168.5 62.1314 168.288 61.7847 168.135 61.3894C167.984 60.9939 167.906 60.5621 167.906 60.0936C167.906 59.6253 167.984 59.1934 168.135 58.798C168.288 58.4027 168.5 58.0589 168.772 57.7669C169.044 57.469 169.366 57.2377 169.736 57.0735C170.105 56.9093 170.51 56.8271 170.951 56.8271C171.386 56.8271 171.786 56.9093 172.152 57.0735C172.521 57.2316 172.843 57.4598 173.114 57.7579C173.393 58.0498 173.605 58.3935 173.752 58.7888C173.904 59.1843 173.979 59.6192 173.979 60.0936C173.979 60.5681 173.904 61.0031 173.752 61.3985C173.605 61.7938 173.393 62.1406 173.114 62.4386C172.843 62.7306 172.521 62.9587 172.152 63.123C171.786 63.2811 171.386 63.3602 170.951 63.3602ZM170.951 62.5481C171.267 62.5481 171.559 62.4873 171.825 62.3656C172.097 62.244 172.331 62.0736 172.527 61.8547C172.729 61.6297 172.883 61.3681 172.993 61.07C173.107 60.7719 173.164 60.4465 173.164 60.0936C173.164 59.7408 173.107 59.4154 172.993 59.1173C172.883 58.8193 172.729 58.5608 172.527 58.3418C172.331 58.1167 172.097 57.9434 171.825 57.8217C171.559 57.7001 171.267 57.6392 170.951 57.6392C170.631 57.6392 170.334 57.7001 170.062 57.8217C169.795 57.9434 169.561 58.1167 169.36 58.3418C169.158 58.5608 169.001 58.8193 168.886 59.1173C168.778 59.4154 168.723 59.7408 168.723 60.0936C168.723 60.4465 168.778 60.7719 168.886 61.07C169.001 61.3681 169.158 61.6297 169.36 61.8547C169.561 62.0736 169.795 62.244 170.062 62.3656C170.334 62.4873 170.631 62.5481 170.951 62.5481Z" fill="#ECECEC"/>
        <path d="M176.861 63.2872V56.9001H179.089C179.589 56.9001 180.016 56.9884 180.369 57.1647C180.724 57.3411 180.996 57.5966 181.186 57.9312C181.377 58.2658 181.472 58.6642 181.472 59.1265C181.472 59.5888 181.377 59.9872 181.186 60.3218C180.996 60.6503 180.724 60.9027 180.369 61.0792C180.016 61.2555 179.589 61.3437 179.089 61.3437H177.309L177.676 60.924V63.2872H176.861ZM180.68 63.2872L179.227 60.9697H180.101L181.57 63.2872H180.68ZM177.676 61.0152L177.309 60.5681H179.064C179.586 60.5681 179.981 60.4434 180.248 60.1941C180.52 59.9386 180.656 59.5827 180.656 59.1265C180.656 58.6703 180.52 58.3174 180.248 58.0681C179.981 57.8186 179.586 57.6939 179.064 57.6939H177.309L177.676 57.2377V61.0152Z" fill="#ECECEC"/>
        <path d="M185.141 61.7452L185.101 60.632L188.341 56.9001H189.272L186.765 59.8564L186.309 60.4221L185.141 61.7452ZM184.423 63.2872V56.9001H185.24V63.2872H184.423ZM188.472 63.2872L186.129 60.2396L186.676 59.5644L189.427 63.2872H188.472Z" fill="#ECECEC"/>
    </g>
    <defs>
        <clipPath id="clip0_392_4318">
            <rect width="194" height="66" fill="white"/>
        </clipPath>
    </defs>
</svg>