<svg width="165" height="208" viewBox="0 0 165 208" fill="none" xmlns="http://www.w3.org/2000/svg">
<path d="M28.9062 207.5C21.25 207.5 14.6571 205.022 9.12758 200.066C3.59807 195.109 0.833313 188.975 0.833313 181.663V45.6501C0.833313 39.4751 2.83244 33.9501 6.83071 29.0751C10.829 24.2001 16.0607 21.1126 22.526 19.8126L123.333 0.800049V156.8L26.6094 175.325C25.0781 175.65 23.8021 176.422 22.7812 177.641C21.7604 178.859 21.25 180.2 21.25 181.663C21.25 183.45 22.0156 184.953 23.5469 186.172C25.0781 187.391 26.8646 188 28.9062 188H143.75V32.0001H164.167V207.5H28.9062ZM51.875 150.706L102.917 141.2V24.6876L51.875 34.1938V150.706ZM31.4583 154.606V38.0938L27.6302 38.8251C25.7587 39.1501 24.2274 39.9219 23.0364 41.1407C21.8455 42.3594 21.25 43.8626 21.25 45.6501V157.044C22.1007 156.719 22.9939 156.434 23.9297 156.191C24.8654 155.947 25.7587 155.744 26.6094 155.581L31.4583 154.606Z" fill="white"/>
</svg>
