<svg width="16" height="16" viewBox="0 0 16 16" fill="none" xmlns="http://www.w3.org/2000/svg">
<path d="M10.68 11.486L9.62428 6.67683L11.677 4.62414C12.5567 3.74442 12.8499 2.57145 12.5567 1.98497C11.9702 1.69172 10.7973 1.98497 9.91753 2.86469L7.86483 4.91738L3.05567 3.86171C2.76243 3.80306 2.52784 3.92036 2.41054 4.15495L2.23459 4.4482C2.1173 4.74144 2.17595 5.03468 2.41054 5.21062L5.5189 7.26332L4.34593 9.02277H2.58648L2 9.60925L3.75945 10.7822L4.93242 12.5417L5.5189 11.9552V10.1957L7.27835 9.02277L9.33104 12.1311C9.50699 12.3657 9.80023 12.4244 10.0935 12.3071L10.3867 12.1898C10.6213 12.0138 10.7386 11.7792 10.68 11.486Z" stroke="#F5F5F5" stroke-linecap="round" stroke-linejoin="round"/>
</svg>
