<svg width="191" height="191" viewBox="0 0 191 191" fill="none" xmlns="http://www.w3.org/2000/svg">
<path d="M38.7792 151.506L3.84583 132.475L15.3083 121.056L42.6 124.862L85.175 82.4499L0.0249939 36.2312L15.3083 21.0062L119.562 47.65L162.41 5.50933C165.503 2.42808 169.37 0.887451 174.009 0.887451C178.649 0.887451 182.515 2.42808 185.608 5.50933C188.701 8.59058 190.248 12.4421 190.248 17.064C190.248 21.6859 188.701 25.5375 185.608 28.6187L143.033 71.0312L169.779 174.887L154.496 190.112L108.1 105.287L65.525 147.7L69.3458 174.887L57.8833 186.306L38.7792 151.506Z" fill="white"/>
</svg>
