<svg width="496" height="416" viewBox="0 0 496 416" fill="none" xmlns="http://www.w3.org/2000/svg">
<path d="M48 96C60.7304 96 72.9394 90.9429 81.9411 81.9411C90.9429 72.9394 96 60.7304 96 48C96 35.2696 90.9429 23.0606 81.9411 14.0589C72.9394 5.05713 60.7304 0 48 0C35.2696 0 23.0606 5.05713 14.0589 14.0589C5.05713 23.0606 0 35.2696 0 48C0 60.7304 5.05713 72.9394 14.0589 81.9411C23.0606 90.9429 35.2696 96 48 96ZM176 16C158.3 16 144 30.3 144 48C144 65.7 158.3 80 176 80H464C481.7 80 496 65.7 496 48C496 30.3 481.7 16 464 16H176ZM176 176C158.3 176 144 190.3 144 208C144 225.7 158.3 240 176 240H464C481.7 240 496 225.7 496 208C496 190.3 481.7 176 464 176H176ZM176 336C158.3 336 144 350.3 144 368C144 385.7 158.3 400 176 400H464C481.7 400 496 385.7 496 368C496 350.3 481.7 336 464 336H176ZM48 416C60.7304 416 72.9394 410.943 81.9411 401.941C90.9429 392.939 96 380.73 96 368C96 355.27 90.9429 343.061 81.9411 334.059C72.9394 325.057 60.7304 320 48 320C35.2696 320 23.0606 325.057 14.0589 334.059C5.05713 343.061 0 355.27 0 368C0 380.73 5.05713 392.939 14.0589 401.941C23.0606 410.943 35.2696 416 48 416ZM96 208C96 201.697 94.7584 195.455 92.3462 189.631C89.934 183.808 86.3983 178.516 81.9411 174.059C77.4839 169.602 72.1924 166.066 66.3688 163.654C60.5452 161.242 54.3035 160 48 160C41.6965 160 35.4548 161.242 29.6312 163.654C23.8076 166.066 18.5161 169.602 14.0589 174.059C9.60166 178.516 6.06601 183.808 3.65378 189.631C1.24156 195.455 -9.39287e-08 201.697 0 208C-9.39287e-08 214.303 1.24156 220.545 3.65378 226.369C6.06601 232.192 9.60166 237.484 14.0589 241.941C18.5161 246.398 23.8076 249.934 29.6312 252.346C35.4548 254.758 41.6965 256 48 256C54.3035 256 60.5452 254.758 66.3688 252.346C72.1924 249.934 77.4839 246.398 81.9411 241.941C86.3983 237.484 89.934 232.192 92.3462 226.369C94.7584 220.545 96 214.303 96 208Z" fill="white"/>
</svg>
