<svg width="15" height="16" viewBox="0 0 15 16" fill="none" xmlns="http://www.w3.org/2000/svg">
<rect width="15" height="16" fill="#06213A"/>
<path d="M4.35366 2.66655L4.36181 2.66681H4.36996H12.753C12.7541 2.66772 12.7554 2.66901 12.757 2.67078L12.7614 2.66681L12.757 2.67079C12.7672 2.68208 12.7804 2.70691 12.7812 2.74215V14.9229C12.7804 14.9581 12.7672 14.983 12.757 14.9943L12.7614 14.9982L12.757 14.9943C12.7554 14.996 12.7541 14.9973 12.753 14.9982H4.67157H4.66263L4.65369 14.9985C4.28709 15.0117 3.91967 14.8636 3.63449 14.5672C3.34912 14.2705 3.17216 13.8504 3.15625 13.3951V3.96485C3.16871 3.59413 3.31216 3.25361 3.54141 3.01412C3.77036 2.77495 4.06336 2.65708 4.35366 2.66655ZM12.253 14.8555H12.753V14.3555V12.451V11.951H12.253H4.68859C4.30172 11.9274 3.9308 12.0732 3.65373 12.3405C3.37345 12.6109 3.2106 12.9831 3.18552 13.371L3.18343 13.4033L3.18552 13.4356C3.2106 13.8235 3.37345 14.1957 3.65373 14.4661C3.9308 14.7333 4.30172 14.8791 4.68859 14.8555H12.253ZM12.253 11.8084H12.753V11.3084V3.30951V2.80951H12.253H4.38603C4.07845 2.79235 3.78509 2.90726 3.56535 3.11484L3.85965 3.42639L3.56535 3.11484C3.34226 3.32557 3.21162 3.61441 3.18625 3.91497L3.18448 3.93596V3.95703V11.5902V12.4808L3.94482 12.0171C4.17132 11.879 4.42128 11.8087 4.67218 11.8084H12.253Z" fill="#F5F5F5" stroke="#F5F5F5"/>
<path d="M5.46875 6.5H9.53125C9.65557 6.5 9.7748 6.44732 9.86271 6.35355C9.95061 6.25979 10 6.13261 10 6C10 5.86739 9.95061 5.74021 9.86271 5.64645C9.7748 5.55268 9.65557 5.5 9.53125 5.5H5.46875C5.34443 5.5 5.2252 5.55268 5.13729 5.64645C5.04939 5.74021 5 5.86739 5 6C5 6.13261 5.04939 6.25979 5.13729 6.35355C5.2252 6.44732 5.34443 6.5 5.46875 6.5ZM5.46875 8.83333H9.53125C9.65557 8.83333 9.7748 8.78066 9.86271 8.68689C9.95061 8.59312 10 8.46594 10 8.33333C10 8.20073 9.95061 8.07355 9.86271 7.97978C9.7748 7.88601 9.65557 7.83333 9.53125 7.83333H5.46875C5.34443 7.83333 5.2252 7.88601 5.13729 7.97978C5.04939 8.07355 5 8.20073 5 8.33333C5 8.46594 5.04939 8.59312 5.13729 8.68689C5.2252 8.78066 5.34443 8.83333 5.46875 8.83333Z" fill="#F5F5F5"/>
</svg>
