<svg width="195" height="191" viewBox="0 0 195 191" fill="none" xmlns="http://www.w3.org/2000/svg">
<path d="M97.5 190.917C84.2319 190.917 71.692 188.412 59.8802 183.403C48.0684 178.393 37.7533 171.555 28.9349 162.888C20.1165 154.221 13.1588 144.083 8.06194 132.474C2.96506 120.865 0.416626 108.54 0.416626 95.5C0.416626 82.3007 2.96506 69.9363 8.06194 58.4068C13.1588 46.8773 20.1165 36.779 28.9349 28.112C37.7533 19.445 48.0684 12.6068 59.8802 7.59744C71.692 2.58806 84.2319 0.083374 97.5 0.083374C110.93 0.083374 123.51 2.58806 135.241 7.59744C146.972 12.6068 157.247 19.445 166.065 28.112C174.883 36.779 181.841 46.8773 186.938 58.4068C192.035 69.9363 194.583 82.3007 194.583 95.5C194.583 108.54 192.035 120.865 186.938 132.474C181.841 144.083 174.883 154.221 166.065 162.888C157.247 171.555 146.972 178.393 135.241 183.403C123.51 188.412 110.93 190.917 97.5 190.917ZM97.5 171.356C101.707 165.631 105.348 159.668 108.422 153.466C111.496 147.264 114.004 140.664 115.946 133.667H79.0541C80.9958 140.664 83.5038 147.264 86.5781 153.466C89.6524 159.668 93.293 165.631 97.5 171.356ZM72.2583 167.54C69.3458 162.292 66.7974 156.845 64.613 151.2C62.4286 145.554 60.6083 139.71 59.152 133.667H30.5125C35.2048 141.618 41.0703 148.536 48.1088 154.42C55.1474 160.304 63.1972 164.677 72.2583 167.54ZM122.742 167.54C131.803 164.677 139.853 160.304 146.891 154.42C153.93 148.536 159.795 141.618 164.487 133.667H135.848C134.392 139.71 132.571 145.554 130.387 151.2C128.203 156.845 125.654 162.292 122.742 167.54ZM22.2604 114.583H55.2687C54.7833 111.403 54.4192 108.262 54.1765 105.161C53.9338 102.06 53.8125 98.8396 53.8125 95.5C53.8125 92.1605 53.9338 88.9401 54.1765 85.8391C54.4192 82.7381 54.7833 79.5973 55.2687 76.4167H22.2604C21.4513 79.5973 20.8446 82.7381 20.4401 85.8391C20.0356 88.9401 19.8333 92.1605 19.8333 95.5C19.8333 98.8396 20.0356 102.06 20.4401 105.161C20.8446 108.262 21.4513 111.403 22.2604 114.583ZM74.6854 114.583H120.315C120.8 111.403 121.164 108.262 121.407 105.161C121.649 102.06 121.771 98.8396 121.771 95.5C121.771 92.1605 121.649 88.9401 121.407 85.8391C121.164 82.7381 120.8 79.5973 120.315 76.4167H74.6854C74.2 79.5973 73.8359 82.7381 73.5932 85.8391C73.3505 88.9401 73.2291 92.1605 73.2291 95.5C73.2291 98.8396 73.3505 102.06 73.5932 105.161C73.8359 108.262 74.2 111.403 74.6854 114.583ZM139.731 114.583H172.74C173.549 111.403 174.155 108.262 174.56 105.161C174.964 102.06 175.167 98.8396 175.167 95.5C175.167 92.1605 174.964 88.9401 174.56 85.8391C174.155 82.7381 173.549 79.5973 172.74 76.4167H139.731C140.217 79.5973 140.581 82.7381 140.823 85.8391C141.066 88.9401 141.187 92.1605 141.187 95.5C141.187 98.8396 141.066 102.06 140.823 105.161C140.581 108.262 140.217 111.403 139.731 114.583ZM135.848 57.3334H164.487C159.795 49.382 153.93 42.4643 146.891 36.5802C139.853 30.6962 131.803 26.323 122.742 23.4605C125.654 28.7084 128.203 34.1551 130.387 39.8006C132.571 45.446 134.392 51.2903 135.848 57.3334ZM79.0541 57.3334H115.946C114.004 50.3362 111.496 43.7365 108.422 37.5344C105.348 31.3323 101.707 25.3688 97.5 19.6438C93.293 25.3688 89.6524 31.3323 86.5781 37.5344C83.5038 43.7365 80.9958 50.3362 79.0541 57.3334ZM30.5125 57.3334H59.152C60.6083 51.2903 62.4286 45.446 64.613 39.8006C66.7974 34.1551 69.3458 28.7084 72.2583 23.4605C63.1972 26.323 55.1474 30.6962 48.1088 36.5802C41.0703 42.4643 35.2048 49.382 30.5125 57.3334Z" fill="white"/>
</svg>
