<svg width="422" height="406" viewBox="0 0 422 406" fill="none" xmlns="http://www.w3.org/2000/svg">
<g clip-path="url(#clip0_16_2)">
<path d="M290.125 203C290.125 220.604 289.136 237.573 287.405 253.75H134.595C132.782 237.573 131.875 220.604 131.875 203C131.875 185.396 132.864 168.427 134.595 152.25H287.405C289.218 168.427 290.125 185.396 290.125 203ZM313.862 152.25H415.324C419.692 168.506 422 185.475 422 203C422 220.525 419.692 237.494 415.324 253.75H313.862C315.593 237.415 316.5 220.445 316.5 203C316.5 185.555 315.593 168.585 313.862 152.25ZM406.67 126.875H310.483C302.241 76.2043 285.921 33.7805 264.904 6.66094C329.44 23.0754 381.943 68.116 406.587 126.875H406.67ZM283.779 126.875H138.221C143.249 98.0109 150.997 72.4773 160.475 51.7809C169.13 33.0668 178.773 19.507 188.087 10.943C197.318 2.5375 204.983 0 211 0C217.017 0 224.682 2.5375 233.913 10.943C243.227 19.507 252.87 33.0668 261.525 51.7809C271.086 72.398 278.751 97.9316 283.779 126.875ZM111.517 126.875H15.3305C40.057 68.116 92.4773 23.0754 157.096 6.66094C136.079 33.7805 119.759 76.2043 111.517 126.875ZM6.67617 152.25H108.137C106.407 168.585 105.5 185.555 105.5 203C105.5 220.445 106.407 237.415 108.137 253.75H6.67617C2.30781 237.494 0 220.525 0 203C0 185.475 2.30781 168.506 6.67617 152.25ZM160.475 354.14C150.914 333.523 143.249 307.989 138.221 279.125H283.779C278.751 307.989 271.003 333.523 261.525 354.14C252.87 372.854 243.227 386.414 233.913 394.978C224.682 403.463 217.017 406 211 406C204.983 406 197.318 403.463 188.087 395.057C178.773 386.493 169.13 372.933 160.475 354.219V354.14ZM111.517 279.125C119.759 329.796 136.079 372.22 157.096 399.339C92.4773 382.925 40.057 337.884 15.3305 279.125H111.517ZM406.67 279.125C381.943 337.884 329.523 382.925 264.986 399.339C286.004 372.22 302.241 329.796 310.566 279.125H406.67Z" fill="white"/>
</g>
<defs>
<clipPath id="clip0_16_2">
<rect width="422" height="406" fill="white"/>
</clipPath>
</defs>
</svg>
