<svg width="195" height="209" viewBox="0 0 195 209" fill="none" xmlns="http://www.w3.org/2000/svg">
<path d="M86.1687 170.381L47.8583 133.55L63.5062 118.506L86.1687 140.294L131.494 96.7188L147.142 111.763L86.1687 170.381ZM21.9583 208.25C16.0229 208.25 10.9418 206.218 6.7151 202.155C2.48837 198.091 0.375 193.206 0.375 187.5V42.25C0.375 36.5438 2.48837 31.6589 6.7151 27.5953C10.9418 23.5318 16.0229 21.5 21.9583 21.5H32.75V0.75H54.3333V21.5H140.667V0.75H162.25V21.5H173.042C178.977 21.5 184.058 23.5318 188.285 27.5953C192.512 31.6589 194.625 36.5438 194.625 42.25V187.5C194.625 193.206 192.512 198.091 188.285 202.155C184.058 206.218 178.977 208.25 173.042 208.25H21.9583ZM21.9583 187.5H173.042V83.75H21.9583V187.5ZM21.9583 63H173.042V42.25H21.9583V63Z" fill="white"/>
</svg>
